#!OML:ASF F:\VICON\USERDATA\INSTALL\rory3\rory3.ASF
:FULLY-SPECIFIED
:DEGREES
217
root 11.9271 17.6682 -9.86093 -59.382 88.2098 -56.8398
lowerback 11.603 -0.146867 -2.93225
upperback 1.70632 -0.419497 1.48841
thorax -4.68513 -0.11969 3.27764
lowerneck -12.2076 -9.42139 -14.0724
upperneck 33.3026 -13.9019 13.7008
head 15.99 -5.67344 5.92624
rclavicle -1.98163e-015 -8.4732e-015
rhumerus -41.7156 -26.5796 -70.3784
rradius 29.7677
rwrist 11.0065
rhand -16.9737 8.28939
rfingers 7.12502
rthumb 9.26075 -21.4872
lclavicle -1.98163e-015 -8.4732e-015
lhumerus -27.6003 0.636326 82.2931
lradius 33.9636
lwrist -3.04464
lhand -17.687 25.8862
lfingers 7.12502
lthumb 8.57242 55.6922
rfemur -2.75602 6.34942 4.62499
rtibia 26.1195
rfoot -5.48168 -8.27657
rtoes -8.7025
lfemur -3.03614 -10.0133 -8.6616
ltibia 21.3356
lfoot -13.521 -2.65641
ltoes -21.0561
218
root 11.9157 17.6422 -9.73721 -65.6141 88.3067 -62.8933
lowerback 11.8348 -0.156535 -2.94197
upperback 1.66352 -0.442934 1.42596
thorax -4.85725 -0.127548 3.2247
lowerneck -12.1042 -9.41781 -13.9992
upperneck 33.3816 -13.9241 13.6944
head 16.0014 -5.67364 5.91564
rclavicle -1.38854e-014 6.8208e-015
rhumerus -41.9423 -26.4398 -70.5724
rradius 29.9725
rwrist 10.6867
rhand -17.4306 8.0421
rfingers 7.12502
rthumb 8.81982 -21.7536
lclavicle -1.38854e-014 6.8208e-015
lhumerus -27.581 0.63144 82.0145
lradius 33.8907
lwrist -3.10462
lhand -17.4002 25.7434
lfingers 7.12502
lthumb 8.84919 55.5379
rfemur -1.98791 6.69951 4.67967
rtibia 25.3517
rfoot -6.3928 -7.04604
rtoes -13.1497
lfemur -2.95706 -10.1209 -8.1925
ltibia 21.3499
lfoot -13.5089 -2.82361
ltoes -21.6052
219
root 11.9109 17.6224 -9.61089 -68.6855 88.4147 -65.8948
lowerback 11.85 -0.18696 -3.0962
upperback 1.62993 -0.508308 1.36358
thorax -4.89506 -0.156839 3.25738
lowerneck -12.0821 -9.34362 -14.057
upperneck 33.475 -13.8363 13.7949
head 16.0427 -5.62976 5.99974
rclavicle 9.66746e-015 -8.22472e-015
rhumerus -42.108 -26.3644 -70.7565
rradius 30.0922
rwrist 10.5146
rhand -17.6677 8.01324
rfingers 7.12502
rthumb 8.59103 -21.792
lclavicle 9.66746e-015 -8.22472e-015
lhumerus -27.5983 0.520129 81.7038
lradius 33.8745
lwrist -2.86605
lhand -17.0875 25.3058
lfingers 7.12502
lthumb 9.1509 55.0873
rfemur -1.34858 7.09364 4.75119
rtibia 24.6099
rfoot -7.32739 -5.99879
rtoes -14.4192
lfemur -2.91912 -10.2413 -7.7982
ltibia 21.3133
lfoot -13.3919 -2.82787
ltoes -22.3158
220
root 11.9072 17.6117 -9.4799 -70.9607 88.2961 -68.1823
lowerback 11.746 -0.217841 -3.00627
upperback 1.60317 -0.538984 1.32054
thorax -4.86439 -0.174849 3.16462
lowerneck -12.1455 -9.32137 -14.132
upperneck 33.5844 -13.8242 13.9075
head 16.1326 -5.61609 6.07582
rclavicle -1.03057e-014 3.47873e-016
rhumerus -42.2856 -26.4358 -70.901
rradius 30.2242
rwrist 10.7789
rhand -17.8215 8.21669
rfingers 7.12502
rthumb 8.44265 -21.5946
lclavicle -1.03057e-014 3.47873e-016
lhumerus -27.5824 0.660443 81.2765
lradius 33.8289
lwrist -2.99278
lhand -17.1166 25.6404
lfingers 7.12502
lthumb 9.12286 55.4231
rfemur -0.861261 7.683 5.15485
rtibia 23.9741
rfoot -8.27495 -5.41028
rtoes -13.9905
lfemur -2.88093 -10.3798 -7.14525
ltibia 21.1818
lfoot -13.1702 -2.92133
ltoes -22.0621
221
root 11.9005 17.6063 -9.35352 -71.9018 88.1929 -69.3461
lowerback 11.5178 -0.272832 -2.94634
upperback 1.48194 -0.602309 1.34825
thorax -4.86071 -0.207345 3.16753
lowerneck -12.1944 -9.29053 -14.2006
upperneck 33.6742 -13.7274 13.8043
head 16.1645 -5.59444 6.06512
rclavicle 5.78339e-015 -3.8763e-015
rhumerus -42.3305 -26.1183 -71.102
rradius 30.3627
rwrist 10.7857
rhand -18.2115 8.12632
rfingers 7.12502
rthumb 8.06616 -21.6997
lclavicle 5.78339e-015 -3.8763e-015
lhumerus -27.6113 1.26366 80.9005
lradius 33.6911
lwrist -3.53265
lhand -16.8542 25.3128
lfingers 7.12502
lthumb 9.37604 55.0843
rfemur -0.736468 7.74225 5.45274
rtibia 23.4693
rfoot -9.03697 -4.61994
rtoes -16.8602
lfemur -3.02054 -10.5778 -6.51421
ltibia 20.9819
lfoot -12.8063 -2.91727
ltoes -21.8216
222
root 11.8911 17.5982 -9.22602 -74.4585 88.2804 -72.229
lowerback 11.1898 -0.349908 -3.05148
upperback 1.35563 -0.714297 1.3624
thorax -4.80109 -0.262273 3.25512
lowerneck -12.2734 -9.22903 -14.1794
upperneck 33.7317 -13.5559 13.5692
head 16.1461 -5.54562 5.98813
rclavicle 8.13775e-015 -1.95306e-014
rhumerus -42.2471 -25.6328 -71.3896
rradius 30.4701
rwrist 10.4797
rhand -18.287 7.98176
rfingers 7.12502
rthumb 7.99337 -21.8471
lclavicle 8.13775e-015 -1.95306e-014
lhumerus -27.6276 1.76471 80.6068
lradius 33.5863
lwrist -3.8531
lhand -16.9257 25.4602
lfingers 7.12502
lthumb 9.30706 55.2347
rfemur -0.809677 7.19908 5.52797
rtibia 23.0876
rfoot -9.76695 -3.53975
rtoes -20.996
lfemur -3.34034 -10.8111 -6.07491
ltibia 20.7991
lfoot -12.4729 -2.60536
ltoes -22.8179
223
root 11.8798 17.5903 -9.08819 -78.9723 88.3026 -76.8935
lowerback 10.9897 -0.377889 -3.15601
upperback 1.32531 -0.760841 1.36046
thorax -4.71662 -0.285529 3.31608
lowerneck -12.3716 -9.2053 -14.1801
upperneck 33.7801 -13.5075 13.5519
head 16.1826 -5.52324 5.99139
rclavicle 9.46712e-015 3.97569e-015
rhumerus -42.217 -25.6375 -71.5047
rradius 30.5317
rwrist 10.4843
rhand -18.144 8.21552
rfingers 7.12502
rthumb 8.13131 -21.608
lclavicle 9.46712e-015 3.97569e-015
lhumerus -27.4958 2.2319 80.2945
lradius 33.41
lwrist -4.11707
lhand -16.8276 25.2467
lfingers 7.12502
lthumb 9.40169 55.017
rfemur -0.709858 6.70234 5.78669
rtibia 22.8148
rfoot -10.6745 -2.54622
rtoes -21.223
lfemur -3.52868 -10.9155 -5.55608
ltibia 20.6478
lfoot -12.1625 -2.35083
ltoes -24.1518
224
root 11.8647 17.5819 -8.94979 -82.9799 88.1506 -80.9487
lowerback 10.9152 -0.426127 -3.07042
upperback 1.31711 -0.813734 1.34988
thorax -4.68088 -0.314187 3.26289
lowerneck -12.4686 -9.19269 -14.2131
upperneck 33.8909 -13.4825 13.5643
head 16.2629 -5.51037 6.01473
rclavicle 8.46077e-015 -7.15625e-015
rhumerus -42.1807 -25.5155 -71.7778
rradius 30.6207
rwrist 10.4126
rhand -18.2767 8.49859
rfingers 7.12502
rthumb 8.00333 -21.3299
lclavicle 8.46077e-015 -7.15625e-015
lhumerus -27.3101 2.83987 79.8604
lradius 33.1311
lwrist -4.36608
lhand -16.9094 25.0113
lfingers 7.12502
lthumb 9.32277 54.7852
rfemur -0.613149 6.04216 6.25888
rtibia 22.6167
rfoot -11.3977 -1.64762
rtoes -19.6962
lfemur -3.59013 -11.0831 -4.87019
ltibia 20.4968
lfoot -11.7268 -2.11513
ltoes -25.0952
225
root 11.8478 17.5742 -8.81375 -84.4689 88.0517 -82.5293
lowerback 10.8605 -0.477563 -3.05137
upperback 1.26314 -0.882201 1.31646
thorax -4.70255 -0.348199 3.22665
lowerneck -12.4989 -9.17972 -14.1534
upperneck 33.9222 -13.4656 13.5191
head 16.2712 -5.5002 5.98778
rclavicle -1.6027e-014 4.87022e-015
rhumerus -42.0489 -25.0644 -72.2508
rradius 30.6153
rwrist 10.0209
rhand -18.6945 8.35065
rfingers 7.12502
rthumb 7.6 -21.4928
lclavicle -1.6027e-014 4.87022e-015
lhumerus -27.276 3.27013 79.4342
lradius 32.9672
lwrist -4.51297
lhand -17.0039 25.2941
lfingers 7.12502
lthumb 9.23161 55.072
rfemur -0.659666 5.3464 6.71295
rtibia 22.4516
rfoot -11.9776 -1.13773
rtoes -18.3871
lfemur -3.68819 -11.2738 -4.26454
ltibia 20.3572
lfoot -11.2103 -1.87498
ltoes -25.6226
226
root 11.8279 17.5711 -8.67637 -86.3328 87.8961 -84.4603
lowerback 10.9105 -0.530537 -2.99484
upperback 1.19064 -0.948473 1.32905
thorax -4.80206 -0.379412 3.21955
lowerneck -12.5547 -9.14038 -13.9077
upperneck 33.9542 -13.395 13.2986
head 16.235 -5.46285 5.85582
rclavicle -9.93923e-016 9.54166e-015
rhumerus -41.9877 -24.7119 -72.5723
rradius 30.6505
rwrist 9.88923
rhand -18.9515 8.32086
rfingers 7.12502
rthumb 7.35199 -21.5314
lclavicle -9.93923e-016 9.54166e-015
lhumerus -27.326 3.69436 79.0762
lradius 32.8952
lwrist -4.62928
lhand -17.0932 25.5909
lfingers 7.12502
lthumb 9.14545 55.3726
rfemur -0.71332 4.92993 7.33834
rtibia 22.342
rfoot -12.5784 -1.04562
rtoes -16.0359
lfemur -3.79321 -11.2971 -3.57998
ltibia 20.2174
lfoot -10.6149 -1.83846
ltoes -24.8815
